Coordinates
version=1
nRows=6
nColumns=63
inDegrees=yes

Units are S.I. units (second, meters, Newtons, ...)
If the header above contains a line with 'inDegrees', this indicates whether rotational values are in degrees (yes) or radians (no).

endheader
time	pelvis_tilt	pelvis_list	pelvis_rotation	pelvis_tx	pelvis_ty	pelvis_tz	hip_flexion_r	hip_adduction_r	hip_rotation_r	knee_angle_r	knee_angle_r_beta	ankle_angle_r	subtalar_angle_r	mtp_angle_r	hip_flexion_l	hip_adduction_l	hip_rotation_l	knee_angle_l	knee_angle_l_beta	ankle_angle_l	subtalar_angle_l	mtp_angle_l	L5_S1_Flex_Ext	L5_S1_Lat_Bending	L5_S1_axial_rotation	L4_L5_Flex_Ext	L4_L5_Lat_Bending	L4_L5_axial_rotation	L3_L4_Flex_Ext	L3_L4_Lat_Bending	L3_L4_axial_rotation	L2_L3_Flex_Ext	L2_L3_Lat_Bending	L2_L3_axial_rotation	L1_L2_Flex_Ext	L1_L2_Lat_Bending	L1_L2_axial_rotation	L1_T12_Flex_Ext	L1_T12_Lat_Bending	L1_T12_axial_rotation	Abs_r3	Abs_r2	Abs_r1	Abs_t1	Abs_t2	neck_flexion	neck_bending	neck_rotation	arm_flex_r	arm_add_r	arm_rot_r	elbow_flex_r	pro_sup_r	wrist_flex_r	wrist_dev_r	arm_flex_l	arm_add_l	arm_rot_l	elbow_flex_l	pro_sup_l	wrist_flex_l	wrist_dev_l
2.383333	-0.420274	-10.464418	104.313609	0.167542	0.341550	0.620641	-1.250519	-3.137318	-18.784853	15.737067	0.274664	27.936812	5.442683	0.000000	-2.993438	3.235521	-7.616463	8.795382	0.153508	28.681284	2.603535	0.000000	-0.315606	0.732099	1.233525	-0.586112	0.973691	1.310620	-0.518509	1.780025	1.310620	-0.360706	1.780025	1.079334	-0.293072	1.492895	1.002239	-0.180337	1.134021	0.925144	-2.254342	8.281646	6.860496	0.000000	0.000000	9.231017	-21.164935	-1.316583	-7.572265	-19.099273	30.953090	29.180210	66.614675	-9.893647	-2.827718	8.392720	-3.441015	164.027689	0.017224	-2.101331	-3.973902	-18.225248
2.400000	-0.380545	-10.578926	104.847183	0.166961	0.341516	0.620955	-1.291827	-3.095999	-19.147755	15.588588	0.272072	27.809014	5.365984	0.000000	-2.669585	3.122212	-7.564687	9.142561	0.159568	28.918664	3.175644	0.000000	-0.301810	0.739108	1.126899	-0.560491	0.983014	1.197330	-0.495844	1.797068	1.197330	-0.344939	1.797068	0.986037	-0.280261	1.507190	0.915605	-0.172454	1.144879	0.845174	-2.155799	8.360942	6.267474	0.000000	0.000000	9.380465	-21.198892	-0.961836	-7.566412	-19.215257	32.813343	28.488769	63.686742	-8.911933	-1.892331	8.544676	-3.246461	166.138730	-0.676132	-4.192459	-3.106821	-18.707318
2.416667	-0.418585	-10.721505	105.255701	0.166695	0.341400	0.621224	-1.304866	-3.106020	-19.298670	15.400538	0.268790	27.785652	5.246553	0.000000	-2.368921	3.097579	-7.601189	9.418760	0.164388	29.133152	3.744731	0.000000	-0.287049	0.733181	1.032504	-0.533078	0.975131	1.097036	-0.471592	1.782657	1.097036	-0.328068	1.782657	0.903441	-0.266553	1.495103	0.838910	-0.164020	1.135698	0.774378	-2.050359	8.293894	5.742480	0.000000	0.000000	9.555840	-21.215683	-0.573028	-7.505943	-19.322887	34.553793	28.024964	61.039163	-8.011262	-0.931585	8.549868	-3.349193	165.590971	-0.637829	-3.915134	-2.337507	-18.553270
2.433333	-0.534340	-10.870083	105.614690	0.166650	0.341231	0.621434	-1.341040	-3.169631	-19.388174	15.154234	0.264491	27.852779	5.164810	0.000000	-2.102819	3.141329	-7.732226	9.655887	0.168527	29.346369	4.411974	0.000000	-0.273583	0.713752	0.943436	-0.508070	0.949290	1.002401	-0.449469	1.735417	1.002401	-0.312678	1.735417	0.825507	-0.254049	1.455483	0.766542	-0.156325	1.105602	0.707577	-1.954173	8.074106	5.247109	0.000000	0.000000	9.687204	-21.179923	-0.306434	-7.364912	-19.414434	36.332884	27.682160	58.478158	-7.290248	-0.178797	8.424586	-3.731921	162.742643	0.055063	-1.620089	-1.805627	-17.877562
2.450000	-0.710093	-11.020150	105.906953	0.166799	0.340985	0.621596	-1.393797	-3.271216	-19.399025	14.862146	0.259393	27.989044	5.068869	0.000000	-1.874561	3.244001	-7.933497	9.850831	0.171929	29.555833	5.107505	0.000000	-0.261930	0.684443	0.869122	-0.486431	0.910309	0.923442	-0.430325	1.664155	0.923442	-0.299360	1.664155	0.760482	-0.243229	1.395716	0.706162	-0.149667	1.060202	0.651841	-1.870942	7.742557	4.833796	0.000000	0.000000	9.794814	-21.110536	-0.145252	-7.230466	-19.456977	37.697224	27.492345	56.500709	-6.694899	0.569865	8.200146	-4.342656	157.937884	1.309513	2.445078	-1.450965	-16.735969
2.466667	-0.932387	-11.150976	106.108415	0.167123	0.340678	0.621742	-1.469173	-3.401181	-19.337589	14.547734	0.253906	28.168591	4.964915	0.000000	-1.709814	3.399187	-8.161881	9.988861	0.174339	29.742539	5.748878	0.000000	-0.255134	0.648255	0.822239	-0.473810	0.862180	0.873629	-0.419160	1.576168	0.873629	-0.291593	1.576168	0.719459	-0.236918	1.321923	0.668069	-0.145784	1.004148	0.616679	-1.822400	7.333195	4.573045	0.000000	0.000000	9.881938	-20.992225	-0.116488	-7.138846	-19.442008	38.547318	27.423697	55.173045	-6.242183	1.345785	7.916276	-5.131885	151.495795	3.044877	8.010080	-1.203465	-15.154215
